<?xml version="1.0" standalone="no"?>
<!DOCTYPE svg PUBLIC "-//W3C//DTD SVG 20010904//EN"
 "http://www.w3.org/TR/2001/REC-SVG-20010904/DTD/svg10.dtd">
<svg version="1.0" xmlns="http://www.w3.org/2000/svg"
 width="512.000000pt" height="512.000000pt" viewBox="0 0 512.000000 512.000000"
 preserveAspectRatio="xMidYMid meet">
<metadata>
Created by potrace 1.14, written by Peter Selinger 2001-2017
</metadata>
<g transform="translate(0.000000,512.000000) scale(0.100000,-0.100000)"
fill="#000000" stroke="none">
<path d="M365 5090 c-98 -4 -129 -9 -167 -28 -79 -39 -160 -141 -176 -222 -8
-39 -10 -2475 -3 -2565 8 -94 37 -159 96 -218 64 -63 125 -86 246 -93 57 -3
109 -5 114 -5 109 5 145 5 145 -2 0 -5 5 -5 11 -1 9 5 105 8 155 5 7 -1 10
-89 9 -294 l-1 -292 293 -295 293 -295 295 0 c290 1 295 0 295 -20 1 -168 10
-470 15 -504 3 -24 15 -61 25 -82 24 -47 93 -115 145 -143 l40 -21 1339 -3
1339 -2 62 35 c70 39 112 86 149 166 l25 53 0 1270 c0 769 -4 1294 -10 1329
-5 33 -18 76 -28 96 -36 69 -122 143 -182 157 -10 2 -29 7 -41 10 -13 4 -399
8 -858 9 l-835 3 -2 34 c-2 18 -4 389 -6 823 -3 435 -7 813 -10 842 -7 66 -34
110 -106 178 -25 24 -95 62 -133 72 -29 8 -2368 11 -2533 3z m2388 -394 c2 -6
4 -359 6 -783 1 -627 -1 -773 -11 -774 -7 0 -131 -2 -274 -3 -245 -3 -264 -4
-295 -24 -73 -45 -82 -45 -149 -1 -33 21 -64 39 -68 39 -5 0 -22 12 -39 26
-33 27 -34 43 -4 74 31 32 77 86 111 130 48 62 54 69 66 83 5 7 13 19 17 27 6
13 63 97 85 125 40 52 124 216 137 270 l10 40 108 0 107 -1 1 41 c2 159 -1
338 -6 343 -3 4 -180 6 -393 7 l-387 0 0 95 0 95 -70 5 c-38 3 -126 4 -195 2
l-126 -3 1 -97 0 -97 -387 -1 c-214 0 -391 -3 -394 -7 -8 -8 -9 -361 -1 -374
3 -4 91 -8 196 -8 105 0 191 -4 191 -8 0 -5 6 -5 13 -2 6 4 3 -1 -8 -9 -47
-38 -77 -71 -87 -95 -15 -36 -20 -119 -8 -126 6 -4 7 -11 4 -17 -4 -6 -2 -13
3 -17 5 -3 19 -27 31 -52 11 -26 27 -53 35 -60 8 -8 25 -33 40 -55 14 -22 31
-47 39 -55 7 -8 42 -48 78 -89 36 -41 82 -91 102 -111 l38 -36 -43 -29 c-23
-16 -48 -35 -55 -41 -7 -7 -20 -13 -28 -13 -8 0 -14 -4 -14 -9 0 -5 -17 -18
-37 -28 -263 -135 -382 -201 -424 -235 -25 -21 -47 -90 -44 -136 3 -42 35
-105 65 -130 63 -52 154 -57 256 -14 79 33 237 116 329 172 33 20 71 43 85 51
14 8 41 26 61 42 20 15 40 27 44 27 3 0 12 6 19 13 8 6 24 19 36 27 12 8 29
21 37 29 18 17 16 18 184 -89 47 -30 94 -61 105 -68 10 -6 43 -24 72 -39 33
-17 52 -34 52 -45 1 -10 1 -65 1 -123 0 -58 0 -127 -1 -155 l0 -50 -390 0
-389 0 -49 49 -50 50 -52 -50 -53 -50 -291 3 -291 3 0 150 c0 88 -4 153 -10
157 -7 5 -7 8 0 8 8 0 12 331 6 530 -1 19 -1 70 0 113 0 42 0 80 -1 85 -1 4
-1 21 0 37 1 17 3 43 4 58 1 16 -1 30 -6 33 -5 3 -5 10 -1 17 5 9 8 162 3 177
-2 3 -1 10 0 15 1 8 1 179 -1 255 0 8 1 45 2 81 1 37 -1 71 -5 78 -4 6 -4 11
1 11 10 0 9 52 -1 68 -3 6 -2 13 2 16 5 3 6 26 2 51 -4 24 -4 47 -2 50 7 7 6
174 -1 181 -3 4 -3 16 1 28 4 11 7 48 7 81 0 52 2 61 20 66 37 12 2324 7 2328
-5z m-833 -780 c0 -13 -170 -266 -179 -266 -4 0 -15 -15 -26 -32 -10 -18 -27
-39 -37 -46 -10 -7 -18 -18 -18 -23 0 -14 -79 -89 -93 -89 -17 0 -217 211
-217 230 0 5 -4 10 -8 10 -5 0 -15 12 -23 28 -8 15 -17 29 -20 32 -3 3 -19 25
-36 50 -33 49 -86 100 -104 100 -5 0 -8 3 -6 8 7 11 767 9 767 -2z m1842
-1466 c10 -19 17 -38 18 -42 0 -4 5 -19 12 -35 6 -15 12 -35 14 -43 2 -8 7
-23 12 -35 14 -29 36 -88 38 -101 1 -6 9 -27 17 -45 9 -19 26 -63 38 -99 12
-36 27 -71 32 -77 5 -7 6 -13 2 -13 -4 0 -2 -6 4 -13 6 -8 8 -17 4 -20 -3 -4
-2 -7 4 -7 5 0 10 -6 10 -12 0 -17 140 -396 159 -430 8 -16 13 -28 10 -28 -3
0 3 -20 14 -44 10 -24 16 -47 13 -50 -4 -3 -1 -6 5 -6 7 0 11 -3 10 -7 -2 -12
14 -67 23 -78 4 -6 18 -42 30 -80 13 -39 25 -72 28 -75 3 -3 7 -12 9 -20 1 -8
7 -24 12 -35 5 -11 23 -60 40 -110 17 -49 34 -97 37 -105 4 -8 5 -18 5 -23 -1
-4 2 -7 8 -7 6 0 9 -3 8 -7 0 -5 2 -17 6 -28 32 -88 35 -100 26 -109 -13 -13
-390 -8 -406 5 -7 6 -16 25 -20 42 -3 18 -11 41 -17 52 -6 11 -12 27 -13 35
-1 8 -21 67 -43 130 -22 63 -41 116 -41 118 0 1 -148 2 -328 2 l-329 0 -13
-42 c-8 -24 -14 -45 -15 -48 -1 -3 -4 -12 -8 -20 -3 -8 -24 -68 -46 -133 -23
-65 -45 -126 -50 -135 -8 -16 -30 -17 -211 -16 -111 1 -204 4 -206 7 -3 3 -1
13 5 24 9 16 150 394 155 418 2 6 7 21 13 35 17 41 55 144 57 155 2 6 7 21 13
35 6 14 16 43 24 65 7 22 16 45 20 50 5 8 19 52 23 75 1 3 6 12 11 20 5 8 10
20 11 25 1 6 39 109 85 230 45 121 82 226 82 233 0 6 4 12 9 12 4 0 8 7 8 16
0 15 32 101 51 137 5 10 7 22 4 27 -3 5 -1 11 5 15 6 4 8 11 5 16 -4 5 -1 9 4
9 6 0 11 4 11 9 0 5 5 22 12 38 6 15 12 33 14 38 8 34 49 131 57 136 5 4 98 6
206 6 l196 -1 17 -36z m-2272 -490 c3 -1 10 -1 15 0 23 4 216 3 221 -2 3 -3
19 -2 37 1 18 4 48 6 67 4 46 -5 49 -5 93 -1 21 3 40 0 44 -4 3 -5 5 -100 4
-211 0 -111 -1 -241 -1 -288 l0 -85 -292 0 -293 1 0 290 0 289 24 6 c22 5 68
5 81 0z"/>
<path d="M3529 1966 c-2 -20 -3 -25 -17 -59 -7 -16 -12 -30 -12 -32 0 -2 -5
-16 -12 -32 -6 -15 -12 -32 -13 -38 -5 -18 -53 -159 -66 -190 -7 -16 -13 -34
-14 -40 0 -5 -4 -17 -7 -25 -19 -48 -41 -115 -39 -115 2 0 -4 -17 -13 -39 -9
-21 -16 -41 -16 -45 0 -5 375 -7 428 -2 14 1 9 48 -9 81 -8 14 -69 191 -74
215 -1 5 -7 23 -13 38 -7 15 -15 40 -19 55 -3 15 -13 43 -21 62 -9 19 -17 40
-18 45 -1 6 -12 36 -24 67 -22 59 -39 81 -41 54z"/>
</g>
</svg>
